<svg id="visual" viewBox="0 0 900 600" width="900" height="600" xmlns="http://www.w3.org/2000/svg" xmlns:xlink="http://www.w3.org/1999/xlink" version="1.1"><path d="M0 491L37.5 498.3C75 505.7 150 520.3 225 527.7C300 535 375 535 450 524.7C525 514.3 600 493.7 675 488C750 482.3 825 491.7 862.5 496.3L900 501L900 601L862.5 601C825 601 750 601 675 601C600 601 525 601 450 601C375 601 300 601 225 601C150 601 75 601 37.5 601L0 601Z" fill="#0c0d11" stroke-linecap="round" stroke-linejoin="miter"></path></svg>